<?xml version="1.0" encoding="utf-8"?>
<!-- Generator: Adobe Illustrator 19.0.0, SVG Export Plug-In . SVG Version: 6.00 Build 0)  -->
<svg version="1.1" id="Layer_1" xmlns="http://www.w3.org/2000/svg" xmlns:xlink="http://www.w3.org/1999/xlink" x="0px" y="0px"
	 viewBox="0 0 76.1 75.8" style="enable-background:new 0 0 76.1 75.8;" xml:space="preserve">
<style type="text/css">
	.st0{opacity:0.1;}
	.st1{fill:#FFFFFF;}
</style>
<g id="XMLID_266_">
	<g id="XMLID_409_" class="st0">
		<g id="XMLID_410_">
			<path id="XMLID_411_" class="st1" d="M75.9,49c-0.1-0.7-1.3-6.4-6.7-19.7c-7-17.3-23.8-26.4-23.8-26.4s0,0.1,0.1,0.2
				c-1.8-1.7-3.7-2.8-5.8-2.9c-6.4-0.5-24.3,15.3-24.3,15.3c-0.1,0.1-0.1,0.2-0.2,0.2C13.7,17.1,4.8,26.3,0.2,43.4
				c-0.8,2.8,1,9.3,12.6,18.7c6.4,5.1,17.1,9.7,21,11.3c9.1,4.3,34.4,5.6,42.2-24.3C76.1,49,76.1,49,75.9,49z"/>
		</g>
	</g>
	<g id="XMLID_267_">
		<path id="XMLID_406_" class="st1" d="M54.1,26.8c-0.4-1.1-1.1-2.2-2-3c-0.8-0.9-1.9-1.5-3-2c-1.1-0.4-2.3-0.7-4.1-0.8
			c-1.8-0.1-2.4-0.1-7-0.1c-4.6,0-5.2,0-7,0.1c-1.8,0.1-3,0.4-4.1,0.8c-1.1,0.4-2.2,1.1-3,2c-0.9,0.8-1.5,1.9-2,3
			c-0.4,1.1-0.7,2.3-0.8,4.1c-0.1,1.8-0.1,2.4-0.1,7c0,4.6,0,5.2,0.1,7c0.1,1.8,0.4,3,0.8,4.1c0.4,1.1,1.1,2.2,2,3
			c0.8,0.9,1.9,1.5,3,2c1.1,0.4,2.3,0.7,4.1,0.8c1.8,0.1,2.4,0.1,7,0.1c4.6,0,5.2,0,7-0.1c1.8-0.1,3-0.4,4.1-0.8
			c2.3-0.9,4.1-2.7,5-5c0.4-1.1,0.7-2.3,0.8-4.1c0.1-1.8,0.1-2.4,0.1-7c0-4.6,0-5.2-0.1-7C54.8,29.1,54.6,27.8,54.1,26.8z
			 M51.9,44.8c-0.1,1.7-0.4,2.6-0.6,3.2c-0.6,1.5-1.7,2.7-3.2,3.2c-0.6,0.2-1.5,0.5-3.2,0.6c-1.8,0.1-2.3,0.1-6.9,0.1
			s-5.1,0-6.9-0.1c-1.7-0.1-2.6-0.4-3.2-0.6c-0.7-0.3-1.4-0.7-2-1.3c-0.6-0.5-1-1.2-1.3-2c-0.2-0.6-0.5-1.5-0.6-3.2
			c-0.1-1.8-0.1-2.3-0.1-6.9s0-5.1,0.1-6.9c0.1-1.7,0.4-2.6,0.6-3.2c0.3-0.7,0.7-1.4,1.3-2c0.5-0.6,1.2-1,2-1.3
			c0.6-0.2,1.5-0.5,3.2-0.6C33,24,33.5,24,38,24h0h0l0,0c4.5,0,5.1,0,6.9,0.1c1.7,0.1,2.6,0.4,3.2,0.6c0.7,0.3,1.4,0.7,2,1.3
			c0.6,0.5,1,1.2,1.3,2c0.2,0.6,0.5,1.5,0.6,3.2c0.1,1.8,0.1,2.3,0.1,6.9S51.9,43,51.9,44.8z"/>
		<path id="XMLID_276_" class="st1" d="M38,29.2c-4.8,0-8.7,3.9-8.7,8.7s3.9,8.7,8.7,8.7s8.7-3.9,8.7-8.7S42.9,29.2,38,29.2z
			 M38,43.6c-3.1,0-5.7-2.5-5.7-5.7c0-3.1,2.5-5.7,5.7-5.7c3.1,0,5.7,2.5,5.7,5.7S41.2,43.6,38,43.6z"/>
		<circle id="XMLID_268_" class="st1" cx="47.1" cy="28.8" r="2"/>
	</g>
</g>
</svg>
