<?xml version="1.0" encoding="utf-8"?>
<!-- Generator: Adobe Illustrator 19.0.0, SVG Export Plug-In . SVG Version: 6.00 Build 0)  -->
<svg version="1.1" id="Layer_1" xmlns="http://www.w3.org/2000/svg" xmlns:xlink="http://www.w3.org/1999/xlink" x="0px" y="0px"
	 viewBox="0 0 76.1 75.8" style="enable-background:new 0 0 76.1 75.8;" xml:space="preserve">
<style type="text/css">
	.st0{opacity:0.1;}
	.st1{fill:#FFFFFF;}
</style>
<g id="XMLID_162_">
	<g id="XMLID_426_" class="st0">
		<path id="XMLID_427_" class="st1" d="M75.9,49c-0.1-0.7-1.3-6.4-6.7-19.7c-7-17.3-23.8-26.4-23.8-26.4s0,0.1,0.1,0.2
			c-1.8-1.7-3.7-2.8-5.8-2.9c-6.4-0.5-24.3,15.3-24.3,15.3c-0.1,0.1-0.1,0.2-0.2,0.2C13.7,17.1,4.8,26.3,0.2,43.4
			c-0.8,2.8,1,9.3,12.6,18.7c6.4,5.1,17.1,9.7,21,11.3c9.1,4.3,34.4,5.6,42.2-24.3C76.1,49,76.1,49,75.9,49z"/>
	</g>
	<path id="XMLID_418_" class="st1" d="M56.5,27.6C55.9,26,54.7,25,53,24.7c-0.9-0.2-1.8-0.2-2.7-0.3c-1.9-0.1-3.9-0.2-5.8-0.2
		c-1.2,0-2.4,0-3.6-0.1c-0.1,0-0.1,0-0.2,0c-1.7,0-3.4,0-5.2,0c-0.3,0-0.6,0-0.9,0c-2.2,0.1-4.4,0.1-6.5,0.2
		c-1.4,0.1-2.8,0.1-4.2,0.3c-1.5,0.1-2.7,0.7-3.6,1.9c-0.5,0.7-0.8,1.5-1,2.3c-0.3,0.9-0.3,1.8-0.4,2.7c-0.3,2.9-0.2,5.7-0.2,8.6
		c0,1.9,0.1,3.8,0.4,5.7c0.1,1,0.4,1.9,0.8,2.8c0.6,1.3,1.7,2,3,2.4c1,0.3,2.1,0.4,3.2,0.4c2.1,0.1,4.3,0.2,6.4,0.2
		c1.3,0,2.6,0,3.9,0.1c0.1,0,0.1,0,0.2,0c1.3,0,2.6,0,3.9,0c0.3,0,0.6,0,0.9,0c2.3-0.1,4.5-0.1,6.8-0.2c1.4,0,2.8-0.1,4.2-0.2
		c1.4-0.1,2.6-0.6,3.5-1.7c0.5-0.6,0.8-1.2,1-1.9c0.4-1.1,0.5-2.2,0.6-3.3c0.3-2.9,0.2-5.7,0.2-8.6c0-1.8-0.1-3.5-0.3-5.2
		C57.2,29.5,56.9,28.5,56.5,27.6z M34,43c0-3.7,0-7.3,0-11c3.5,1.8,7,3.7,10.6,5.5C41,39.3,37.5,41.1,34,43z"/>
</g>
</svg>
