<?xml version="1.0" encoding="utf-8"?>
<!-- Generator: Adobe Illustrator 19.0.0, SVG Export Plug-In . SVG Version: 6.00 Build 0)  -->
<svg version="1.1" id="Layer_1" xmlns="http://www.w3.org/2000/svg" xmlns:xlink="http://www.w3.org/1999/xlink" x="0px" y="0px"
	 viewBox="0 0 76.1 75.8" style="enable-background:new 0 0 76.1 75.8;" xml:space="preserve">
<style type="text/css">
	.st0{opacity:0.1;
	}
	.st1{fill:#FFFFFF;}
	.st1{fill:#cccc;}
	.st1{fill:#FFFFFF;}
	.st1{fill:#FFFFFF;}
	.st1{fill:#FFFFFF;}
	.st1{fill:#FFFFFF;}
	.st1{fill:#FFFFFF;}
	.st1{fill:#FFFFFF;}
	.st1{fill:#FFFFFF;}
	.st1{fill:#ccccc;}
	.st1{fill:#FFFFFF;}
	.st1{fill:#FFFFFF;}
	.st1{fill:#FFFFFF;}
	.st1{fill:#FFFFFF;}
</style>
<g id="XMLID_413_">
	<g id="XMLID_415_" class="st0">
		<path id="XMLID_416_" class="st1" d="M75.9,49c-0.1-0.7-1.3-6.4-6.7-19.7c-7-17.3-23.8-26.4-23.8-26.4s0,0.1,0.1,0.2
			c-1.8-1.7-3.7-2.8-5.8-2.9c-6.4-0.5-24.3,15.3-24.3,15.3c-0.1,0.1-0.1,0.2-0.2,0.2C13.7,17.1,4.8,26.3,0.2,43.4
			c-0.8,2.8,1,9.3,12.6,18.7c6.4,5.1,17.1,9.7,21,11.3c9.1,4.3,34.4,5.6,42.2-24.3C76.1,49,76.1,49,75.9,49z"/>
	</g>
	<path id="XMLID_414_" class="st1" d="M33.7,30.3v2.9h-5.2v5h5.2v15h5.7v-15h6.1v-5h-6.1v-3.5c0-1,0.6-1.8,1.2-1.8h4.8v-5.3h-4.8
		C36.7,22.6,33.7,26,33.7,30.3z"/>
</g>
</svg>
