<svg id="Layer_1" xmlns="http://www.w3.org/2000/svg" viewBox="0 0 76.1 75.8"><style>.st0{opacity:.1}.st1{fill:#fff}</style><g id="XMLID_162_"><g id="XMLID_426_" class="st0"><path id="XMLID_427_" class="st1" d="M75.9 49c-.1-.7-1.3-6.4-6.7-19.7C62.2 12 45.4 2.9 45.4 2.9s0 .1.1.2C43.7 1.4 41.8.3 39.7.2c-6.4-.5-24.3 15.3-24.3 15.3-.1.1-.1.2-.2.2-1.5 1.4-10.4 10.6-15 27.7-.8 2.8 1 9.3 12.6 18.7 6.4 5.1 17.1 9.7 21 11.3C42.9 77.7 68.2 79 76 49.1c.1-.1.1-.1-.1-.1z"/></g><path id="XMLID_418_" class="st1" d="M56.5 27.6c-.6-1.6-1.8-2.6-3.5-2.9-.9-.2-1.8-.2-2.7-.3-1.9-.1-3.9-.2-5.8-.2-1.2 0-2.4 0-3.6-.1H34.6c-2.2.1-4.4.1-6.5.2-1.4.1-2.8.1-4.2.3-1.5.1-2.7.7-3.6 1.9-.5.7-.8 1.5-1 2.3-.3.9-.3 1.8-.4 2.7-.3 2.9-.2 5.7-.2 8.6 0 1.9.1 3.8.4 5.7.1 1 .4 1.9.8 2.8.6 1.3 1.7 2 3 2.4 1 .3 2.1.4 3.2.4 2.1.1 4.3.2 6.4.2 1.3 0 2.6 0 3.9.1h5c2.3-.1 4.5-.1 6.8-.2 1.4 0 2.8-.1 4.2-.2 1.4-.1 2.6-.6 3.5-1.7.5-.6.8-1.2 1-1.9.4-1.1.5-2.2.6-3.3.3-2.9.2-5.7.2-8.6 0-1.8-.1-3.5-.3-5.2-.2-1.1-.5-2.1-.9-3zM34 43V32c3.5 1.8 7 3.7 10.6 5.5C41 39.3 37.5 41.1 34 43z"/></g></svg>