<svg id="Layer_1" xmlns="http://www.w3.org/2000/svg" viewBox="0 0 76.1 75.8"><style>.st0{opacity:.1}.st1{fill:#fff}</style><g id="XMLID_413_"><g id="XMLID_415_" class="st0"><path id="XMLID_416_" class="st1" d="M75.9 49c-.1-.7-1.3-6.4-6.7-19.7C62.2 12 45.4 2.9 45.4 2.9s0 .1.1.2C43.7 1.4 41.8.3 39.7.2c-6.4-.5-24.3 15.3-24.3 15.3-.1.1-.1.2-.2.2-1.5 1.4-10.4 10.6-15 27.7-.8 2.8 1 9.3 12.6 18.7 6.4 5.1 17.1 9.7 21 11.3C42.9 77.7 68.2 79 76 49.1c.1-.1.1-.1-.1-.1z"/></g><path id="XMLID_414_" class="st1" d="M33.7 30.3v2.9h-5.2v5h5.2v15h5.7v-15h6.1v-5h-6.1v-3.5c0-1 .6-1.8 1.2-1.8h4.8v-5.3h-4.8c-3.9 0-6.9 3.4-6.9 7.7z"/></g></svg>