<svg id="Layer_1" xmlns="http://www.w3.org/2000/svg" viewBox="0 0 76.1 75.8"><style>.st0{opacity:.1}.st1{fill:#fff}</style><g id="XMLID_266_"><g id="XMLID_409_" class="st0"><g id="XMLID_410_"><path id="XMLID_411_" class="st1" d="M75.9 49c-.1-.7-1.3-6.4-6.7-19.7C62.2 12 45.4 2.9 45.4 2.9s0 .1.1.2C43.7 1.4 41.8.3 39.7.2c-6.4-.5-24.3 15.3-24.3 15.3-.1.1-.1.2-.2.2-1.5 1.4-10.4 10.6-15 27.7-.8 2.8 1 9.3 12.6 18.7 6.4 5.1 17.1 9.7 21 11.3C42.9 77.7 68.2 79 76 49.1c.1-.1.1-.1-.1-.1z"/></g></g><g id="XMLID_267_"><path id="XMLID_406_" class="st1" d="M54.1 26.8c-.4-1.1-1.1-2.2-2-3-.8-.9-1.9-1.5-3-2-1.1-.4-2.3-.7-4.1-.8-1.8-.1-2.4-.1-7-.1s-5.2 0-7 .1c-1.8.1-3 .4-4.1.8-1.1.4-2.2 1.1-3 2-.9.8-1.5 1.9-2 3-.4 1.1-.7 2.3-.8 4.1-.1 1.8-.1 2.4-.1 7s0 5.2.1 7c.1 1.8.4 3 .8 4.1.4 1.1 1.1 2.2 2 3 .8.9 1.9 1.5 3 2 1.1.4 2.3.7 4.1.8 1.8.1 2.4.1 7 .1s5.2 0 7-.1c1.8-.1 3-.4 4.1-.8 2.3-.9 4.1-2.7 5-5 .4-1.1.7-2.3.8-4.1.1-1.8.1-2.4.1-7s0-5.2-.1-7c-.1-1.8-.3-3.1-.8-4.1zm-2.2 18c-.1 1.7-.4 2.6-.6 3.2-.6 1.5-1.7 2.7-3.2 3.2-.6.2-1.5.5-3.2.6-1.8.1-2.3.1-6.9.1s-5.1 0-6.9-.1c-1.7-.1-2.6-.4-3.2-.6-.7-.3-1.4-.7-2-1.3-.6-.5-1-1.2-1.3-2-.2-.6-.5-1.5-.6-3.2-.1-1.8-.1-2.3-.1-6.9s0-5.1.1-6.9c.1-1.7.4-2.6.6-3.2.3-.7.7-1.4 1.3-2 .5-.6 1.2-1 2-1.3.6-.2 1.5-.5 3.2-.6 1.9.2 2.4.2 6.9.2s5.1 0 6.9.1c1.7.1 2.6.4 3.2.6.7.3 1.4.7 2 1.3.6.5 1 1.2 1.3 2 .2.6.5 1.5.6 3.2.1 1.8.1 2.3.1 6.9s-.2 4.9-.2 6.7z"/><path id="XMLID_276_" class="st1" d="M38 29.2c-4.8 0-8.7 3.9-8.7 8.7s3.9 8.7 8.7 8.7 8.7-3.9 8.7-8.7-3.8-8.7-8.7-8.7zm0 14.4c-3.1 0-5.7-2.5-5.7-5.7 0-3.1 2.5-5.7 5.7-5.7 3.1 0 5.7 2.5 5.7 5.7s-2.5 5.7-5.7 5.7z"/><circle id="XMLID_268_" class="st1" cx="47.1" cy="28.8" r="2"/></g></g></svg>